<?xml version="1.0" encoding="utf-8"?>
<!-- Generator: Adobe Illustrator 26.3.0, SVG Export Plug-In . SVG Version: 6.00 Build 0)  -->
<svg version="1.1" id="Layer_1" xmlns="http://www.w3.org/2000/svg" xmlns:xlink="http://www.w3.org/1999/xlink" x="0px" y="0px"
	 viewBox="0 0 1080 1080" style="enable-background:new 0 0 1080 1080;" xml:space="preserve">
<style type="text/css">
	.st0{fill:#DAA520;}
	.st1{fill:#2B3990;}
</style>
<g>
	<path class="st0" d="M568.61,222.51c0.75,4.59,1.5,9.16,2.25,13.67c3.33,20.08,6.77,40.85,9.09,61.55c0.23,2.02,0.56,4.42,0.94,7.2
		c1.58,11.57,3.75,27.43,2.18,41.76c-2.73,24.88-15.81,32.79-26.3,35.03c-20.93,4.48-36.98-3.37-51.13-10.29
		c-9.28-4.54-18.04-8.83-27.72-9.7c-21.32-1.91-42.62,6.07-57.04,21.97c-41.69,45.98,6.4,118.55,64.94,100.64
		c8.17-2.5,15.99-6.05,23.78-9.52c3.1-1.38,6.31-2.81,9.52-4.18l0.41-0.16c2.46-0.91,24.47-8.67,38.88-0.59
		c6,3.37,9.91,8.92,11.3,16.04c9.47,48.41,1.56,98.81-11.03,145.91c-0.78,2.93-1.55,5.81-2.29,8.64L828.9,484.67l0.46-110.15
		L568.61,222.51z"/>
	<path class="st1" d="M729.57,652.24L539.07,761.17L347.95,649.77l0.46-111.07l187.22,109.14c1.6-6.84,3.47-13.86,5.31-20.72
		c11.91-44.54,19.71-91.81,10.75-137.64c-0.44-2.25-1.35-3.04-2.26-3.55c-4.95-2.79-16.77-0.64-23.35,1.73
		c-3,1.28-6.05,2.64-9.01,3.96c-19.79,8.82-40.25,17.93-64.51,13.11c-25.76-5.13-48.75-23.18-60.37-46.67
		c-13.46-27.19-6.64-58.16,10.65-82.06c20.2-27.92,51.33-37.32,84.67-30.11c9.05,1.96,17.88,5.01,26.2,9.08
		c13.14,6.43,24.5,11.98,39.22,8.83c16.99-3.64,12.3-37.94,9.78-56.36c-0.38-2.77-0.74-5.4-0.99-7.64
		c-2.27-20.22-5.67-40.75-8.96-60.6c-1.55-9.38-3.14-18.99-4.62-28.62l-6.58-3.84L252.19,372.18l-0.28,66.47l-0.16-0.09
		l-1.11,266.85L538.6,873.27l285.56-163.28L729.57,652.24z"/>
</g>
</svg>
